<svg width="52" height="52" viewBox="0 0 52 52" fill="none" xmlns="http://www.w3.org/2000/svg">
<path d="M51.415 27.415L27.415 51.415C27.1353 51.695 26.7788 51.8858 26.3906 51.9631C26.0024 52.0404 25.6001 52.0008 25.2344 51.8493C24.8688 51.6978 24.5563 51.4412 24.3366 51.112C24.1168 50.7828 23.9997 50.3958 24 50V40H4C2.93913 40 1.92172 39.5786 1.17157 38.8284C0.421427 38.0783 0 37.0609 0 36V16C0 14.9391 0.421427 13.9217 1.17157 13.1716C1.92172 12.4214 2.93913 12 4 12H24V2C23.9997 1.60421 24.1168 1.21723 24.3366 0.888039C24.5563 0.558851 24.8688 0.302263 25.2344 0.150758C25.6001 -0.000746667 26.0024 -0.0403559 26.3906 0.0369449C26.7788 0.114246 27.1353 0.304981 27.415 0.585003L51.415 24.585C51.601 24.7708 51.7485 24.9913 51.8491 25.2341C51.9498 25.4769 52.0016 25.7372 52.0016 26C52.0016 26.2628 51.9498 26.5231 51.8491 26.7659C51.7485 27.0087 51.601 27.2293 51.415 27.415Z" fill="#400C7A" fill-opacity="0.59"/>
</svg>